<svg style="width: 35px;margin-top:-4px;vertical-align:middle;" xmlns="http://www.w3.org/2000/svg" width="35" height="35" viewBox="0 0 512 512"><defs><clipPath id="a"><path d="M0 0h512v512H0z"/></clipPath></defs><g clip-path="url(#a)"><g data-name="Group 3" transform="rotate(-90 80.429 57.587)"><circle data-name="Ellipse 1" cx="46" cy="46" r="46" transform="translate(.016 377.159)"/><path data-name="Polygon 1" d="M45.516 369.159l-32.5-51h65z"/><path data-name="Rectangle 1" d="M33.016 137.159h25v181h-25z"/><path data-name="Polygon 2" d="M45.516 99.159l32.5 52h-65z"/><circle data-name="Ellipse 2" cx="45.914" cy="45.914" r="45.914"/></g><g data-name="Group 4" transform="rotate(150 101.662 260.696)"><circle data-name="Ellipse 1" cx="45.914" cy="45.914" transform="translate(.146 377.144)" r="45.914"/><path data-name="Polygon 1" d="M45.43 369.596l-32.706-51.574h65.412z"/><path data-name="Rectangle 1" d="M32.851 136.882h25.158v181.14H32.851z"/><path data-name="Polygon 2" d="M45.431 99.145l32.706 51.574H12.725z"/><circle data-name="Ellipse 2" cx="45.914" cy="45.914" r="45.914"/></g><g data-name="Group 5"><path data-name="Polygon 1" d="M283.634 372.288l-2.538-61.017 56.649 32.706z"/><path data-name="Rectangle 1" d="M389.097 164.463l21.787 12.579-90.57 156.872-21.787-12.58z"/><path data-name="Polygon 2" d="M418.86 138.071l2.536 61.017-56.648-32.706z"/></g></g></svg>
